@startuml domain-model
'https://plantuml.com/class-diagram
skinparam classAttributeIconSize 0

skinparam packageStyle rectangle

package "<<aggregate>> User"{
    
    entity User <<entity>> <<root>>{

    }
    class Username <<Value Object>>{

    }
    
    enum Role <<Value Object>> {
        ADMIN
        DOCTOR
        NURSE
        TECHNICIAN
        PATIENT
    }

    class Email  <<Value Object>> {
    }

}

package "<<aggregate>> Patient"{

    entity Patient <<entity>> <<root>>{
    }

    class PatientFirstName <<Value Object>>{

    }

    class PatientLastName <<Value Object>>{
        
    }

    class PatientFullName <<Value Object>>{
        
    }
    
    class DateOfBirth <<Value Object>>{
        
    }

    enum Gender <<Value Object>>{
        MALE
        FEMALE
        UNDEFINED
        OTHER
    }

    class MedicalRecordNumber <<Value Object>>{
        
    }

    class PatientContactInformation <<Value Object>>{
        
    }

    class PatientEmail <<Value Object>>{
        
    }

    class PatientPhone <<Value Object>>{
        
    }

    class EmergencyContact <<Value Object>>{
        
    }

    class AppointmentHistory <<Value Object>>{
        
    }


}

package "<<aggregate>> Staff"{

    entity Staff <<entity>> <<root>>{
    }

    class StaffId <<ValueObject>>{

    }

    class StaffFirstName <<Value Object>>{

    }

    class StaffLastName <<Value Object>>{
        
    }

    class StaffFullName <<Value Object>>{
        
    }

    class LicenseNumber <<Value Object>>{
        
    }

    class StaffContactInformation <<Value Object>>{
        
    }

    class StaffEmail <<Value Object>>{
        
    }

    class StaffPhone <<Value Object>>{
        
    }

    class StaffStatus <<Value Object>> {}
}

package "<<aggregate>> OperationRequest"{

    entity OperationRequest <<entity>> <<root>>{
    }

    class OperationRequestId <<Value Object>>{
        
    }

    class DeadlineDate <<Value Object>>{
        
    }

    enum Priority <<Value Object>>{
        ELECTIVE
        URGENT
        EMERGENCY
    }

    enum OperationRequestStatus <<Value Object>> {
        SCHEDULED
        WAITING
    }

}

package "<<aggregate>> Specialization "{

    entity Specialization <<entity>> <<root>>{
    }

    class SpecializationId <<Value Object>>{
        
    }

    class SpecializationName <<Value Object>>{
        
    }

    class SpecializationCode <<Value Object>> {

    }

    class SpecializationDescricription <<Value Object>> {

    }
}

package "<<aggregate>> OperationType"{

    entity OperationType <<entity>> <<root>>{
    }

    class OperationTypeId <<Value Object>>{
        
    }

    class OperationTypeName <<Value Object>>{
        
    }

    class EstimatedDuration <<Value Object>>{
        
    }

    class AnesthesiaTime <<Value Object>>{
        
    }

    class SurgeryTime <<Value Object>>{
        
    }

    class CleaningTime <<Value Object>>{
        
    }

    class OperationTypeStatus <<Value Object>>{
        
    }
}

package "<<aggregate>> Appointment"{

    entity Appointment <<entity>> <<root>>{
    }

    class AppointmentId <<Value Object>>{
        
    }

    class AppointmentDateAndTime <<Value Object>>{
        
    }

    enum AppointmentStatus <<Value Object>>{
        SCHEDULED
        COMPLETED
        CANCELED
    }
}

package "<<aggregate>> SurgeryRoom"{

    entity SurgeryRoom <<entity>> <<root>>{
    }

    class RoomNumber <<Value Object>>{
        
    }

    class SurgeryRoomCapacity <<Value Object>>{
        
    }

    class SurgeryRoomAssignedEquipment <<Value Object>> { 

    }

    enum SurgeryRoomCurrentStatus <<Value Object>>{
        AVAILABLE
        OCCUPIED
        UNDER_MAINTENANCE
    }

    class SurgeryRoomMaintenanceSlots <<Value Object>> {
             
    }
    
}

package "<<aggregate>> RoomTyppe"{

    entity RoomType <<entity>> <<root>>{
    }

    class RoomTypeCode <<Value Object>>{
        
    }

    class RoomTypeDesignation <<Value Object>>{
        
    }

    class RoomTypeDescription <<Value Object>> { 

    }

    class RoomTypeIsSurgical <<Value Object>>{

    }
    
}

package "<<aggregate>> AvailabilitySlot" {

    entity AvailabilitySlot <<entity>> <<root>>{
        
    }

    class AvailabilitySlotId <<ValueObject>> {

    }

    class StartTime <<Value Objet>> {

    }

    class EndTime <<Value Obkect>> {

    }
}

package "<<aggregate>> Allergy" {

    entity Allergy <<entity>> <<root>> {
        
    }

    class AllergyCode <<Value Object>>{
        
    }

    class AllgeryDesignation <<ValueObject>> {

    }

    class AllergyDescription <<Value Objet>> {

    }
}

package "<<aggregate>> MedicalCondition" {

    entity MedicalCondition <<entity>> <<root>> {
        
    }

    class MedicalConditionCode <<Value Object>>{
        
    }

    class MedicalConditionDesignation <<ValueObject>> {

    }

    class MedicalConditionDescription <<Value Objet>> {

    }
}

package "<<aggregate>> MedicalRecord" {

    entity MedicalRecord <<entity>> <<root>> {
        
    }

    class MedicalRecordText <<Value Object>>{
        
    }
}

'User'
Username <- User
User --> Role
User --> Email

'Patient'
PatientFirstName <-- Patient
PatientLastName <-- Patient
PatientFullName <-- Patient
DateOfBirth <- Patient
Patient --> Gender
Patient ---> MedicalRecordNumber
Patient ---> PatientContactInformation
Patient --> EmergencyContact
Patient -> AppointmentHistory
PatientContactInformation --> PatientEmail
PatientContactInformation --> PatientPhone
Patient "1" --> "0..1" User: includes

'Staff'
Staff -> StaffId
Staff --> StaffFirstName
Staff --> StaffLastName
Staff -> StaffFullName
StaffContactInformation <- Staff
StaffContactInformation --> StaffEmail
StaffContactInformation --> StaffPhone
Staff ---> LicenseNumber
Staff ---> StaffStatus
Staff "1" ---> "*" AvailabilitySlot : has
Staff "1" ---> "1" User: includes
Staff "1" ---> "1" Specialization : has

'Specialization'
Specialization -> SpecializationId
Specialization --> SpecializationName
Specialization --> SpecializationCode
Specialization --> SpecializationDescricription

'OperationRequest'
OperationRequestId <- OperationRequest
OperationRequest --> DeadlineDate
OperationRequest --> Priority
OperationRequest "*" --> "1" Patient: of
OperationRequest "*" ----> "1" Staff: to
OperationRequest "*" ---> "1" OperationType: of
OperationRequest --> OperationRequestStatus

'OperationType'
OperationType --> OperationTypeId
OperationType --> OperationTypeName
OperationType -> EstimatedDuration
OperationType --> AnesthesiaTime
OperationType --> SurgeryTime
OperationType --> CleaningTime
OperationType --> OperationTypeStatus
OperationType "*" ---> "*" Specialization: has

'Appointment'
AppointmentId <- Appointment
Appointment --> AppointmentDateAndTime
Appointment --> AppointmentStatus
Appointment "1" ---> "1" OperationRequest: of
Appointment "*" --> "1" SurgeryRoom: in

'SurgeryRoom'
RoomNumber <- SurgeryRoom
SurgeryRoom --> SurgeryRoomCapacity
SurgeryRoom --> SurgeryRoomAssignedEquipment
SurgeryRoom --> SurgeryRoomCurrentStatus
SurgeryRoom  -> SurgeryRoomMaintenanceSlots
SurgeryRoom "*" ---> "1" RoomType: has

'AvailabilitySlot'
AvailabilitySlot -> AvailabilitySlotId
AvailabilitySlot --> StartTime
AvailabilitySlot --> EndTime

'Room Type'
RoomType --> RoomTypeCode
RoomType --> RoomTypeDesignation
RoomType --> RoomTypeDescription
RoomType --> RoomTypeIsSurgical

'Allergy'
Allergy --> AllergyCode
Allergy --> AllgeryDesignation
Allergy --> AllergyDescription

'Medical Condition'
MedicalCondition --> MedicalConditionCode
MedicalCondition --> MedicalConditionDesignation
MedicalCondition --> MedicalConditionDescription

'Patient Medical Record'
PatientMedicalRecord --> PatientMedicalRecordText
PatientMedicalRecord "*" --> "*" Allergy: has
PatientMedicalRecord "*" --> "*" MedicalCondition: has
Patient "*" -u-> "1" PatientMedicalRecord: has

@enduml